<svg width="27" height="25" viewBox="0 0 27 25" fill="none" xmlns="http://www.w3.org/2000/svg">
<path fill-rule="evenodd" clip-rule="evenodd" d="M26.3255 12.7839C26.3255 11.8975 26.24 11.0452 26.0813 10.2271H13.4314V15.0623H20.6599C20.3485 16.6248 19.4022 17.9486 17.9797 18.835V21.9714H22.3205C24.8602 19.7952 26.3255 16.5907 26.3255 12.7839Z" fill="#4285F4"/>
<path fill-rule="evenodd" clip-rule="evenodd" d="M13.4313 25C17.0578 25 20.0981 23.8807 22.3204 21.9716L17.9797 18.8352C16.7769 19.5852 15.2384 20.0284 13.4313 20.0284C9.93307 20.0284 6.97207 17.8295 5.91588 14.875H1.42859V18.1136C3.63865 22.1989 8.18089 25 13.4313 25Z" fill="#34A853"/>
<path fill-rule="evenodd" clip-rule="evenodd" d="M5.91589 14.8751C5.64727 14.1251 5.49464 13.324 5.49464 12.5001C5.49464 11.6762 5.64727 10.8751 5.91589 10.1251V6.88647H1.42861C0.518938 8.57397 0 10.4831 0 12.5001C0 14.5172 0.518938 16.4262 1.42861 18.1137L5.91589 14.8751Z" fill="#FBBC05"/>
<path fill-rule="evenodd" clip-rule="evenodd" d="M13.4313 4.97159C15.4033 4.97159 17.1738 5.60227 18.5658 6.84091L22.4181 3.25568C20.092 1.23864 17.0517 0 13.4313 0C8.18089 0 3.63865 2.80114 1.42859 6.88636L5.91588 10.125C6.97207 7.17045 9.93307 4.97159 13.4313 4.97159Z" fill="#EA4335"/>
</svg>
